<?xml version="1.0" encoding="UTF-8" standalone="no"?>
<!DOCTYPE svg PUBLIC "-//W3C//DTD SVG 1.1//EN" "http://www.w3.org/Graphics/SVG/1.1/DTD/svg11.dtd">
<!-- Generated by graphviz version 2.40.1 (20161225.0304)
 -->
<!-- Title: %0 Pages: 1 -->
<svg width="1162pt" height="404pt" viewBox="0.00 0.00 1161.86 404.00" xmlns="http://www.w3.org/2000/svg" xmlns:xlink="http://www.w3.org/1999/xlink">
<g id="graph0" class="graph" transform="scale(1 1) rotate(0) translate(4 400)">
<title>%0</title>
<polygon fill="#ffffff" stroke="transparent" points="-4,4 -4,-400 1157.864,-400 1157.864,4 -4,4"/>
<!-- [root] aws_eip.prod_nat_eip (expand) -->
<g id="node1" class="node">
<title>[root] aws_eip.prod_nat_eip (expand)</title>
<polygon fill="none" stroke="#000000" points="583.4873,-180 444.0029,-180 444.0029,-144 583.4873,-144 583.4873,-180"/>
<text text-anchor="middle" x="513.7451" y="-157.8" font-family="Times,serif" font-size="14.00" fill="#000000">aws_eip.prod_nat_eip</text>
</g>
<!-- [root] aws_vpc.prod (expand) -->
<g id="node10" class="node">
<title>[root] aws_vpc.prod (expand)</title>
<polygon fill="none" stroke="#000000" points="661.8862,-108 567.604,-108 567.604,-72 661.8862,-72 661.8862,-108"/>
<text text-anchor="middle" x="614.7451" y="-85.8" font-family="Times,serif" font-size="14.00" fill="#000000">aws_vpc.prod</text>
</g>
<!-- [root] aws_eip.prod_nat_eip (expand)&#45;&gt;[root] aws_vpc.prod (expand) -->
<g id="edge1" class="edge">
<title>[root] aws_eip.prod_nat_eip (expand)-&gt;[root] aws_vpc.prod (expand)</title>
<path fill="none" stroke="#000000" d="M539.2317,-143.8314C551.911,-134.7927 567.4047,-123.7476 581.0507,-114.0198"/>
<polygon fill="#000000" stroke="#000000" points="583.1556,-116.8176 589.2667,-108.1628 579.0922,-111.1176 583.1556,-116.8176"/>
</g>
<!-- [root] aws_instance.server (expand) -->
<g id="node2" class="node">
<title>[root] aws_instance.server (expand)</title>
<polygon fill="none" stroke="#000000" points="729.0759,-252 600.4143,-252 600.4143,-216 729.0759,-216 729.0759,-252"/>
<text text-anchor="middle" x="664.7451" y="-229.8" font-family="Times,serif" font-size="14.00" fill="#000000">aws_instance.server</text>
</g>
<!-- [root] aws_security_group.devs&#45;remote&#45;login&#45;in (expand) -->
<g id="node8" class="node">
<title>[root] aws_security_group.devs-remote-login-in (expand)</title>
<polygon fill="none" stroke="#000000" points="990.1713,-180 739.319,-180 739.319,-144 990.1713,-144 990.1713,-180"/>
<text text-anchor="middle" x="864.7451" y="-157.8" font-family="Times,serif" font-size="14.00" fill="#000000">aws_security_group.devs-remote-login-in</text>
</g>
<!-- [root] aws_instance.server (expand)&#45;&gt;[root] aws_security_group.devs&#45;remote&#45;login&#45;in (expand) -->
<g id="edge2" class="edge">
<title>[root] aws_instance.server (expand)-&gt;[root] aws_security_group.devs-remote-login-in (expand)</title>
<path fill="none" stroke="#000000" d="M714.9554,-215.9243C742.2966,-206.0815 776.3046,-193.8386 805.0026,-183.5073"/>
<polygon fill="#000000" stroke="#000000" points="806.2908,-186.7635 814.5142,-180.0831 803.9197,-180.1773 806.2908,-186.7635"/>
</g>
<!-- [root] aws_subnet.public (expand) -->
<g id="node9" class="node">
<title>[root] aws_subnet.public (expand)</title>
<polygon fill="none" stroke="#000000" points="721.5567,-180 601.9336,-180 601.9336,-144 721.5567,-144 721.5567,-180"/>
<text text-anchor="middle" x="661.7451" y="-157.8" font-family="Times,serif" font-size="14.00" fill="#000000">aws_subnet.public</text>
</g>
<!-- [root] aws_instance.server (expand)&#45;&gt;[root] aws_subnet.public (expand) -->
<g id="edge3" class="edge">
<title>[root] aws_instance.server (expand)-&gt;[root] aws_subnet.public (expand)</title>
<path fill="none" stroke="#000000" d="M663.9881,-215.8314C663.6672,-208.131 663.2857,-198.9743 662.9291,-190.4166"/>
<polygon fill="#000000" stroke="#000000" points="666.4257,-190.2589 662.5123,-180.4133 659.4318,-190.5503 666.4257,-190.2589"/>
</g>
<!-- [root] aws_internet_gateway.prod (expand) -->
<g id="node3" class="node">
<title>[root] aws_internet_gateway.prod (expand)</title>
<polygon fill="none" stroke="#000000" points="426.0744,-180 255.4158,-180 255.4158,-144 426.0744,-144 426.0744,-180"/>
<text text-anchor="middle" x="340.7451" y="-157.8" font-family="Times,serif" font-size="14.00" fill="#000000">aws_internet_gateway.prod</text>
</g>
<!-- [root] aws_internet_gateway.prod (expand)&#45;&gt;[root] aws_vpc.prod (expand) -->
<g id="edge4" class="edge">
<title>[root] aws_internet_gateway.prod (expand)-&gt;[root] aws_vpc.prod (expand)</title>
<path fill="none" stroke="#000000" d="M409.5332,-143.9243C455.2713,-131.9055 514.6276,-116.3082 557.729,-104.9823"/>
<polygon fill="#000000" stroke="#000000" points="558.709,-108.3437 567.4912,-102.4171 556.93,-101.5735 558.709,-108.3437"/>
</g>
<!-- [root] aws_key_pair.server (expand) -->
<g id="node4" class="node">
<title>[root] aws_key_pair.server (expand)</title>
<polygon fill="none" stroke="#000000" points="340.6871,-108 208.8032,-108 208.8032,-72 340.6871,-72 340.6871,-108"/>
<text text-anchor="middle" x="274.7451" y="-85.8" font-family="Times,serif" font-size="14.00" fill="#000000">aws_key_pair.server</text>
</g>
<!-- [root] provider[&quot;registry.terraform.io/hashicorp/aws&quot;] -->
<g id="node11" class="node">
<title>[root] provider["registry.terraform.io/hashicorp/aws"]</title>
<polygon fill="none" stroke="#000000" points="274.7451,-36 -.2453,-18 274.7451,0 549.7356,-18 274.7451,-36"/>
<text text-anchor="middle" x="274.7451" y="-13.8" font-family="Times,serif" font-size="14.00" fill="#000000">provider["registry.terraform.io/hashicorp/aws"]</text>
</g>
<!-- [root] aws_key_pair.server (expand)&#45;&gt;[root] provider[&quot;registry.terraform.io/hashicorp/aws&quot;] -->
<g id="edge5" class="edge">
<title>[root] aws_key_pair.server (expand)-&gt;[root] provider["registry.terraform.io/hashicorp/aws"]</title>
<path fill="none" stroke="#000000" d="M274.7451,-71.8314C274.7451,-64.131 274.7451,-54.9743 274.7451,-46.4166"/>
<polygon fill="#000000" stroke="#000000" points="278.2452,-46.4132 274.7451,-36.4133 271.2452,-46.4133 278.2452,-46.4132"/>
</g>
<!-- [root] var.vpc_name -->
<g id="node12" class="node">
<title>[root] var.vpc_name</title>
<polygon fill="none" stroke="#000000" points="656.1548,-36 567.3355,-36 567.3355,0 662.1548,0 662.1548,-30 656.1548,-36"/>
<polyline fill="none" stroke="#000000" points="656.1548,-36 656.1548,-30 "/>
<polyline fill="none" stroke="#000000" points="662.1548,-30 656.1548,-30 "/>
<text text-anchor="middle" x="614.7451" y="-13.8" font-family="Times,serif" font-size="14.00" fill="#000000">var.vpc_name</text>
</g>
<!-- [root] aws_key_pair.server (expand)&#45;&gt;[root] var.vpc_name -->
<g id="edge6" class="edge">
<title>[root] aws_key_pair.server (expand)-&gt;[root] var.vpc_name</title>
<path fill="none" stroke="#000000" d="M340.6736,-79.8293C396.1849,-70.7281 477.7908,-56.0948 557.0477,-36.2907"/>
<polygon fill="#000000" stroke="#000000" points="558.3662,-39.5675 567.2021,-33.7213 556.649,-32.7814 558.3662,-39.5675"/>
</g>
<!-- [root] aws_nat_gateway.prod (expand) -->
<g id="node5" class="node">
<title>[root] aws_nat_gateway.prod (expand)</title>
<polygon fill="none" stroke="#000000" points="581.9181,-252 437.5721,-252 437.5721,-216 581.9181,-216 581.9181,-252"/>
<text text-anchor="middle" x="509.7451" y="-229.8" font-family="Times,serif" font-size="14.00" fill="#000000">aws_nat_gateway.prod</text>
</g>
<!-- [root] aws_nat_gateway.prod (expand)&#45;&gt;[root] aws_eip.prod_nat_eip (expand) -->
<g id="edge7" class="edge">
<title>[root] aws_nat_gateway.prod (expand)-&gt;[root] aws_eip.prod_nat_eip (expand)</title>
<path fill="none" stroke="#000000" d="M510.7545,-215.8314C511.1823,-208.131 511.691,-198.9743 512.1664,-190.4166"/>
<polygon fill="#000000" stroke="#000000" points="515.662,-190.592 512.7222,-180.4133 508.6728,-190.2037 515.662,-190.592"/>
</g>
<!-- [root] aws_nat_gateway.prod (expand)&#45;&gt;[root] aws_internet_gateway.prod (expand) -->
<g id="edge8" class="edge">
<title>[root] aws_nat_gateway.prod (expand)-&gt;[root] aws_internet_gateway.prod (expand)</title>
<path fill="none" stroke="#000000" d="M467.0993,-215.8314C444.3961,-206.159 416.3001,-194.1891 392.3709,-183.9944"/>
<polygon fill="#000000" stroke="#000000" points="393.656,-180.7376 383.0843,-180.038 390.9123,-187.1775 393.656,-180.7376"/>
</g>
<!-- [root] aws_nat_gateway.prod (expand)&#45;&gt;[root] aws_subnet.public (expand) -->
<g id="edge9" class="edge">
<title>[root] aws_nat_gateway.prod (expand)-&gt;[root] aws_subnet.public (expand)</title>
<path fill="none" stroke="#000000" d="M548.1011,-215.8314C568.2495,-206.2874 593.1204,-194.5065 614.4534,-184.4013"/>
<polygon fill="#000000" stroke="#000000" points="616.1258,-187.482 623.6649,-180.038 613.1292,-181.1558 616.1258,-187.482"/>
</g>
<!-- [root] aws_route_table.public (expand) -->
<g id="node6" class="node">
<title>[root] aws_route_table.public (expand)</title>
<polygon fill="none" stroke="#000000" points="1153.9831,-180 1007.5071,-180 1007.5071,-144 1153.9831,-144 1153.9831,-180"/>
<text text-anchor="middle" x="1080.7451" y="-157.8" font-family="Times,serif" font-size="14.00" fill="#000000">aws_route_table.public</text>
</g>
<!-- [root] aws_route_table.public (expand)&#45;&gt;[root] aws_vpc.prod (expand) -->
<g id="edge10" class="edge">
<title>[root] aws_route_table.public (expand)-&gt;[root] aws_vpc.prod (expand)</title>
<path fill="none" stroke="#000000" d="M1007.4831,-145.6276C1004.5353,-145.0609 1001.6141,-144.5158 998.7451,-144 883.4107,-123.2632 747.3889,-105.7609 672.132,-96.6815"/>
<polygon fill="#000000" stroke="#000000" points="672.2704,-93.1731 661.9247,-95.4568 671.4365,-100.1233 672.2704,-93.1731"/>
</g>
<!-- [root] aws_route_table_association.public (expand) -->
<g id="node7" class="node">
<title>[root] aws_route_table_association.public (expand)</title>
<polygon fill="none" stroke="#000000" points="962.6882,-252 746.8021,-252 746.8021,-216 962.6882,-216 962.6882,-252"/>
<text text-anchor="middle" x="854.7451" y="-229.8" font-family="Times,serif" font-size="14.00" fill="#000000">aws_route_table_association.public</text>
</g>
<!-- [root] aws_route_table_association.public (expand)&#45;&gt;[root] aws_route_table.public (expand) -->
<g id="edge11" class="edge">
<title>[root] aws_route_table_association.public (expand)-&gt;[root] aws_route_table.public (expand)</title>
<path fill="none" stroke="#000000" d="M911.4827,-215.9243C942.6469,-205.9959 981.4762,-193.6255 1014.0807,-183.2382"/>
<polygon fill="#000000" stroke="#000000" points="1015.5184,-186.4536 1023.9841,-180.0831 1013.3935,-179.7839 1015.5184,-186.4536"/>
</g>
<!-- [root] aws_route_table_association.public (expand)&#45;&gt;[root] aws_subnet.public (expand) -->
<g id="edge12" class="edge">
<title>[root] aws_route_table_association.public (expand)-&gt;[root] aws_subnet.public (expand)</title>
<path fill="none" stroke="#000000" d="M806.0431,-215.8314C779.7716,-206.0306 747.1768,-193.8709 719.6167,-183.5894"/>
<polygon fill="#000000" stroke="#000000" points="720.6896,-180.2541 710.097,-180.038 718.2429,-186.8126 720.6896,-180.2541"/>
</g>
<!-- [root] aws_security_group.devs&#45;remote&#45;login&#45;in (expand)&#45;&gt;[root] aws_vpc.prod (expand) -->
<g id="edge13" class="edge">
<title>[root] aws_security_group.devs-remote-login-in (expand)-&gt;[root] aws_vpc.prod (expand)</title>
<path fill="none" stroke="#000000" d="M801.9823,-143.9243C762.1502,-132.4527 710.9983,-117.7209 672.2275,-106.5549"/>
<polygon fill="#000000" stroke="#000000" points="672.7253,-103.0561 662.1472,-103.6518 670.788,-109.7827 672.7253,-103.0561"/>
</g>
<!-- [root] aws_subnet.public (expand)&#45;&gt;[root] aws_vpc.prod (expand) -->
<g id="edge14" class="edge">
<title>[root] aws_subnet.public (expand)-&gt;[root] aws_vpc.prod (expand)</title>
<path fill="none" stroke="#000000" d="M649.885,-143.8314C644.5822,-135.7079 638.2214,-125.9637 632.3778,-117.0118"/>
<polygon fill="#000000" stroke="#000000" points="635.162,-114.8739 626.7649,-108.4133 629.3003,-118.7003 635.162,-114.8739"/>
</g>
<!-- [root] aws_vpc.prod (expand)&#45;&gt;[root] provider[&quot;registry.terraform.io/hashicorp/aws&quot;] -->
<g id="edge15" class="edge">
<title>[root] aws_vpc.prod (expand)-&gt;[root] provider["registry.terraform.io/hashicorp/aws"]</title>
<path fill="none" stroke="#000000" d="M567.4696,-79.9887C511.1504,-68.0623 416.3528,-47.9875 349.9371,-33.923"/>
<polygon fill="#000000" stroke="#000000" points="350.4504,-30.4542 339.9422,-31.8064 349.0001,-37.3023 350.4504,-30.4542"/>
</g>
<!-- [root] aws_vpc.prod (expand)&#45;&gt;[root] var.vpc_name -->
<g id="edge16" class="edge">
<title>[root] aws_vpc.prod (expand)-&gt;[root] var.vpc_name</title>
<path fill="none" stroke="#000000" d="M614.7451,-71.8314C614.7451,-64.131 614.7451,-54.9743 614.7451,-46.4166"/>
<polygon fill="#000000" stroke="#000000" points="618.2452,-46.4132 614.7451,-36.4133 611.2452,-46.4133 618.2452,-46.4132"/>
</g>
<!-- [root] provider[&quot;registry.terraform.io/hashicorp/aws&quot;] (close) -->
<g id="node13" class="node">
<title>[root] provider["registry.terraform.io/hashicorp/aws"] (close)</title>
<ellipse fill="none" stroke="#000000" cx="586.7451" cy="-306" rx="247.2168" ry="18"/>
<text text-anchor="middle" x="586.7451" y="-301.8" font-family="Times,serif" font-size="14.00" fill="#000000">[root] provider["registry.terraform.io/hashicorp/aws"] (close)</text>
</g>
<!-- [root] provider[&quot;registry.terraform.io/hashicorp/aws&quot;] (close)&#45;&gt;[root] aws_instance.server (expand) -->
<g id="edge17" class="edge">
<title>[root] provider["registry.terraform.io/hashicorp/aws"] (close)-&gt;[root] aws_instance.server (expand)</title>
<path fill="none" stroke="#000000" d="M606.4278,-287.8314C615.8502,-279.1337 627.2852,-268.5783 637.5247,-259.1265"/>
<polygon fill="#000000" stroke="#000000" points="640.0947,-261.5175 645.0687,-252.1628 635.3467,-256.3738 640.0947,-261.5175"/>
</g>
<!-- [root] provider[&quot;registry.terraform.io/hashicorp/aws&quot;] (close)&#45;&gt;[root] aws_key_pair.server (expand) -->
<g id="edge18" class="edge">
<title>[root] provider["registry.terraform.io/hashicorp/aws"] (close)-&gt;[root] aws_key_pair.server (expand)</title>
<path fill="none" stroke="#000000" d="M511.1742,-288.7637C420.6163,-266.3806 277.2255,-224.837 246.7451,-180 233.7998,-160.9573 243.5455,-135.6568 254.9484,-116.7314"/>
<polygon fill="#000000" stroke="#000000" points="257.9273,-118.5701 260.4072,-108.2696 252.0451,-114.7754 257.9273,-118.5701"/>
</g>
<!-- [root] provider[&quot;registry.terraform.io/hashicorp/aws&quot;] (close)&#45;&gt;[root] aws_nat_gateway.prod (expand) -->
<g id="edge19" class="edge">
<title>[root] provider["registry.terraform.io/hashicorp/aws"] (close)-&gt;[root] aws_nat_gateway.prod (expand)</title>
<path fill="none" stroke="#000000" d="M567.3148,-287.8314C558.0131,-279.1337 546.7247,-268.5783 536.6165,-259.1265"/>
<polygon fill="#000000" stroke="#000000" points="538.864,-256.4363 529.1693,-252.1628 534.083,-261.5493 538.864,-256.4363"/>
</g>
<!-- [root] provider[&quot;registry.terraform.io/hashicorp/aws&quot;] (close)&#45;&gt;[root] aws_route_table_association.public (expand) -->
<g id="edge20" class="edge">
<title>[root] provider["registry.terraform.io/hashicorp/aws"] (close)-&gt;[root] aws_route_table_association.public (expand)</title>
<path fill="none" stroke="#000000" d="M651.6204,-288.5708C689.6884,-278.3436 738.006,-265.3627 777.9652,-254.6274"/>
<polygon fill="#000000" stroke="#000000" points="778.919,-257.9954 787.6685,-252.0206 777.1028,-251.2351 778.919,-257.9954"/>
</g>
<!-- [root] root -->
<g id="node14" class="node">
<title>[root] root</title>
<ellipse fill="none" stroke="#000000" cx="586.7451" cy="-378" rx="50.9823" ry="18"/>
<text text-anchor="middle" x="586.7451" y="-373.8" font-family="Times,serif" font-size="14.00" fill="#000000">[root] root</text>
</g>
<!-- [root] root&#45;&gt;[root] provider[&quot;registry.terraform.io/hashicorp/aws&quot;] (close) -->
<g id="edge21" class="edge">
<title>[root] root-&gt;[root] provider["registry.terraform.io/hashicorp/aws"] (close)</title>
<path fill="none" stroke="#000000" d="M586.7451,-359.8314C586.7451,-352.131 586.7451,-342.9743 586.7451,-334.4166"/>
<polygon fill="#000000" stroke="#000000" points="590.2452,-334.4132 586.7451,-324.4133 583.2452,-334.4133 590.2452,-334.4132"/>
</g>
</g>
</svg>